<svg width="32" height="33" viewBox="0 0 32 33" fill="none" xmlns="http://www.w3.org/2000/svg">
<path d="M24 10.7874C24 8.66562 23.1571 6.63079 21.6569 5.1305C20.1566 3.63021 18.1217 2.78735 16 2.78735C13.8783 2.78735 11.8434 3.63021 10.3431 5.1305C8.84286 6.63079 8 8.66562 8 10.7874C8 20.1207 4 22.7874 4 22.7874H28C28 22.7874 24 20.1207 24 10.7874Z" stroke="#1C1C1E" stroke-width="2" stroke-linecap="round" stroke-linejoin="round"/>
<path d="M18.3067 28.1206C18.0723 28.5247 17.7358 28.8601 17.331 29.0933C16.9262 29.3265 16.4672 29.4492 16 29.4492C15.5329 29.4492 15.0739 29.3265 14.6691 29.0933C14.2642 28.8601 13.9278 28.5247 13.6934 28.1206" stroke="#1C1C1E" stroke-width="2" stroke-linecap="round" stroke-linejoin="round"/>
</svg>
