<svg width="10" height="10" viewBox="0 0 10 10" fill="none" xmlns="http://www.w3.org/2000/svg">
<g clip-path="url(#clip0_213_1311)">
<path d="M4.24556 8.47318C4.41401 8.47318 4.5472 8.39873 4.64122 8.25378L8.34316 2.42469C8.41369 2.31109 8.4411 2.22491 8.4411 2.13481C8.4411 1.91935 8.30007 1.77832 8.08462 1.77832C7.92791 1.77832 7.84173 1.82925 7.74773 1.97811L4.22989 7.58391L2.40437 5.1943C2.30644 5.05718 2.20851 5.00236 2.06748 5.00236C1.84419 5.00236 1.69141 5.15512 1.69141 5.37057C1.69141 5.46069 1.73058 5.56255 1.80501 5.65655L3.83815 8.24596C3.95567 8.39873 4.07711 8.47318 4.24556 8.47318Z" fill="white"/>
</g>
<defs>
<clipPath id="clip0_213_1311">
<rect width="6.7497" height="6.91423" fill="white" transform="translate(1.69141 1.55859)"/>
</clipPath>
</defs>
</svg>
