<svg width="10" height="10" viewBox="0 0 10 10" fill="none" xmlns="http://www.w3.org/2000/svg">
<g clip-path="url(#clip0_213_321)">
<mask id="path-1-inside-1_213_321" fill="white">
<path d="M4.24559 8.47313C4.41404 8.47313 4.54723 8.39869 4.64125 8.25374L8.34323 2.42469C8.41377 2.31108 8.44118 2.2249 8.44118 2.1348C8.44118 1.91934 8.30014 1.77832 8.08469 1.77832C7.92798 1.77832 7.8418 1.82925 7.7478 1.97811L4.22992 7.58387L2.40438 5.19428C2.30645 5.05716 2.20851 5.00233 2.06748 5.00233C1.84419 5.00233 1.69141 5.1551 1.69141 5.37055C1.69141 5.46067 1.73058 5.56253 1.80501 5.65653L3.83817 8.24592C3.9557 8.39869 4.07714 8.47313 4.24559 8.47313Z"/>
</mask>
<path d="M4.64125 8.25374L5.48025 8.79796L5.4854 8.78985L4.64125 8.25374ZM8.34323 2.42469L9.18742 2.96083L9.1928 2.95217L8.34323 2.42469ZM7.7478 1.97811L6.90226 1.44418L6.90077 1.44656L7.7478 1.97811ZM4.22992 7.58387L3.43527 8.19095L4.31055 9.33667L5.07694 8.11542L4.22992 7.58387ZM2.40438 5.19428L1.59063 5.77549L1.59997 5.78857L1.60974 5.80135L2.40438 5.19428ZM1.80501 5.65653L2.59154 5.03896L2.589 5.03575L1.80501 5.65653ZM3.83817 8.24592L4.63081 7.63615L4.62469 7.62836L3.83817 8.24592ZM4.24559 9.47313C4.76706 9.47313 5.20968 9.215 5.48021 8.79794L3.80229 7.70955C3.83147 7.66456 3.88953 7.59706 3.98566 7.54365C4.08311 7.48951 4.17788 7.47313 4.24559 7.47313V9.47313ZM5.4854 8.78985L9.18738 2.9608L7.49909 1.88858L3.7971 7.71763L5.4854 8.78985ZM9.1928 2.95217C9.32706 2.73593 9.44118 2.46753 9.44118 2.1348H7.44118C7.44118 2.0714 7.45196 2.00873 7.46998 1.95469C7.48579 1.90725 7.50092 1.88552 7.49367 1.8972L9.1928 2.95217ZM9.44118 2.1348C9.44118 1.80445 9.32867 1.44649 9.05083 1.16865C8.77298 0.890812 8.41503 0.77832 8.08469 0.77832V2.77832C7.96981 2.77832 7.7901 2.73634 7.63664 2.58288C7.48317 2.42942 7.44118 2.2497 7.44118 2.1348H9.44118ZM8.08469 0.77832C7.89644 0.77832 7.64059 0.809406 7.38292 0.962101C7.13755 1.10751 6.99002 1.30521 6.90227 1.44418L8.59333 2.51204C8.59957 2.50214 8.54214 2.59995 8.40253 2.68268C8.25063 2.7727 8.11623 2.77832 8.08469 2.77832V0.77832ZM6.90077 1.44656L3.38289 7.05232L5.07694 8.11542L8.59482 2.50966L6.90077 1.44656ZM5.02456 6.9768L3.19903 4.58721L1.60974 5.80135L3.43527 8.19095L5.02456 6.9768ZM3.21814 4.61307C3.11668 4.47102 2.96688 4.30272 2.74565 4.17718C2.5133 4.04532 2.27636 4.00233 2.06748 4.00233V6.00233C1.99964 6.00233 1.88218 5.98677 1.75853 5.9166C1.64601 5.85274 1.59415 5.78042 1.59063 5.77549L3.21814 4.61307ZM2.06748 4.00233C1.72248 4.00233 1.36698 4.12427 1.09393 4.39326C0.820247 4.66286 0.691406 5.01952 0.691406 5.37055H2.69141C2.69141 5.50613 2.63896 5.67868 2.49749 5.81804C2.35665 5.95679 2.18919 6.00233 2.06748 6.00233V4.00233ZM0.691406 5.37055C0.691406 5.73973 0.844148 6.05392 1.02103 6.2773L2.589 5.03575C2.60708 5.05859 2.63052 5.09433 2.65071 5.14557C2.67053 5.19587 2.69141 5.27222 2.69141 5.37055H0.691406ZM1.01849 6.27409L3.05165 8.86349L4.62469 7.62836L2.59153 5.03896L1.01849 6.27409ZM3.04557 8.85566C3.15522 8.99819 3.30978 9.16136 3.52732 9.28544C3.75689 9.41639 4.00261 9.47313 4.24559 9.47313V7.47313C4.32011 7.47313 4.42089 7.49266 4.51825 7.54819C4.60357 7.59685 4.63865 7.64642 4.63077 7.63618L3.04557 8.85566Z" fill="#929292" mask="url(#path-1-inside-1_213_321)"/>
</g>
<defs>
<clipPath id="clip0_213_321">
<rect width="6.74977" height="6.91419" fill="white" transform="translate(1.69141 1.55859)"/>
</clipPath>
</defs>
</svg>
