<svg width="48" height="49" viewBox="0 0 48 49" fill="none" xmlns="http://www.w3.org/2000/svg">
<path d="M41.6802 10.0984C40.6587 9.07642 39.4459 8.2657 38.1109 7.71257C36.776 7.15945 35.3452 6.87476 33.9002 6.87476C32.4553 6.87476 31.0244 7.15945 29.6895 7.71257C28.3546 8.2657 27.1418 9.07642 26.1202 10.0984L24.0002 12.2184L21.8802 10.0984C19.8169 8.03502 17.0183 6.87583 14.1002 6.87583C11.1822 6.87583 8.38362 8.03502 6.32024 10.0984C4.25685 12.1618 3.09766 14.9603 3.09766 17.8784C3.09766 20.7965 4.25685 23.595 6.32024 25.6584L8.44024 27.7784L24.0002 43.3384L39.5602 27.7784L41.6802 25.6584C42.7022 24.6369 43.5129 23.424 44.0661 22.0891C44.6192 20.7542 44.9039 19.3234 44.9039 17.8784C44.9039 16.4334 44.6192 15.0026 44.0661 13.6677C43.5129 12.3328 42.7022 11.1199 41.6802 10.0984V10.0984Z" stroke="#1C1C1E" stroke-width="2" stroke-linecap="round" stroke-linejoin="round"/>
</svg>
