<svg width="500" height="61" viewBox="0 0 500 61" fill="none" xmlns="http://www.w3.org/2000/svg">
<path d="M155.992 30.9667V40.311C155.992 40.663 147.91 44.6091 141.617 44.6091C138.993 44.63 136.392 44.1211 133.97 43.1128C131.547 42.1046 129.353 40.6177 127.519 38.7414C125.326 36.6451 123.583 34.1243 122.395 31.3326C121.207 28.5408 120.6 25.5365 120.61 22.5026C120.61 10.7672 129.514 0.352061 141.455 0H142.071C146.505 0.0031166 150.775 1.67953 154.027 4.69415C154.542 5.04474 154.921 5.56308 155.098 6.16107V10.4298H154.687C154.696 10.3863 154.696 10.3413 154.687 10.2978C154.288 8.64745 153.539 7.10202 152.491 5.76584C151.443 4.42966 150.121 3.33386 148.614 2.55244C146.825 1.69697 144.887 1.19869 142.907 1.08552C130.556 0.308053 127.519 14.7572 127.519 22.4879C127.519 31.3774 133.578 43.3035 142.687 43.3035C150.022 43.3035 153.425 37.6265 154.819 33.7832C155.083 32.8297 155.362 31.8909 155.596 30.9667H155.978H155.992ZM171.63 42.8048V0.997506H162.931V1.34957C163.298 1.34957 166.452 1.951 166.452 4.00469V42.8048C166.453 42.9801 166.421 43.154 166.356 43.3167C166.29 43.4794 166.194 43.6277 166.071 43.753C165.948 43.8783 165.802 43.9783 165.641 44.0471C165.48 44.116 165.307 44.1524 165.131 44.1543V44.5357H172.95V44.1543C172.783 44.1582 172.617 44.1289 172.462 44.0682C172.306 44.0075 172.164 43.9165 172.044 43.8005C171.924 43.6845 171.828 43.5459 171.762 43.3926C171.696 43.2393 171.661 43.0744 171.659 42.9074C171.659 42.9074 171.659 42.9074 171.659 42.8194M472.525 42.8194V0.997506H463.855V1.34957C464.207 1.34957 467.405 1.951 467.405 4.00469V42.8048C467.405 42.9832 467.37 43.1599 467.301 43.3246C467.232 43.4893 467.131 43.6388 467.005 43.7643C466.878 43.8898 466.727 43.9889 466.562 44.0558C466.396 44.1228 466.219 44.1563 466.041 44.1543V44.5357H473.815V44.1543C473.649 44.1602 473.482 44.1329 473.326 44.0739C473.17 44.015 473.027 43.9256 472.905 43.811C472.784 43.6964 472.686 43.5588 472.618 43.4062C472.551 43.2536 472.514 43.0891 472.51 42.9221C472.51 42.9221 472.51 42.9221 472.51 42.8194M34.7367 1.45225V1.89233C36.4677 1.89233 37.2745 3.00719 36.7757 4.26874L24.5269 36.6584L12.4395 5.10489C11.5153 2.68447 13.1143 1.89233 15.0506 1.89233V1.45225H0V1.89233C1.35051 1.83242 2.68597 2.19613 3.81959 2.93259C4.95321 3.66905 5.82829 4.74142 6.32243 5.99971L21.065 44.5944H22.5319L37.6412 4.65014C37.9843 3.85628 38.5454 3.17589 39.2594 2.6878C39.9733 2.19971 40.811 1.9239 41.6752 1.89233V1.45225H34.7367ZM490.465 44.5357C496.509 44.5357 500 40.3843 500 36.0129C500 32.3896 497.301 30.1452 493.59 29.001L489.189 27.5341C485.698 26.4486 483.864 25.3631 483.864 22.796C483.864 19.8621 486.079 18.0578 489.908 18.0578C493.986 18.0578 495.497 21.241 496.641 24.8056H496.978V19.8034C495.003 18.1619 492.52 17.2548 489.952 17.2363C484.993 17.2363 481.326 20.6396 481.326 25.1284C481.326 30.4239 484.788 31.5975 487.267 32.463L491.932 34.0472C493.956 34.766 495.834 35.6755 495.834 38.7414C495.891 39.4038 495.804 40.0706 495.578 40.6958C495.352 41.3211 494.993 41.8898 494.525 42.3627C494.058 42.8356 493.494 43.2013 492.871 43.4347C492.249 43.668 491.583 43.7634 490.92 43.7142C484.861 43.7142 482.514 39.0788 481.443 35.3381H481.15V40.9858C483.81 43.1606 487.105 44.4117 490.538 44.5504M367.713 41.6165C368.061 42.3523 368.599 42.9813 369.273 43.438C369.946 43.8947 370.73 44.1623 371.542 44.213V44.5944H359.352V44.213C359.865 44.213 362.007 43.6849 361.273 41.6752L356.227 28.3556H341.705L336.468 42.218C335.837 43.8756 337.803 44.1983 338.243 44.1983V44.5797H332.375V44.1983C333.005 44.231 333.631 44.0808 334.177 43.7659C334.724 43.451 335.168 42.9847 335.455 42.4234L350.887 1.27622H352.354L367.669 41.5139M348.922 9.2416L342.497 26.2285H355.362L348.922 9.2416ZM391.668 17.339C386.592 17.339 384.451 21.7398 383.776 24.0575H383.688V18.0431H377.321V18.3365C377.632 18.3673 377.924 18.4963 378.157 18.7047C378.389 18.9131 378.548 19.1901 378.612 19.4954V43.1128C378.565 43.4147 378.406 43.6879 378.167 43.8781C377.928 44.0684 377.626 44.1617 377.321 44.1397V44.5211H385.037V44.1397C384.756 44.1726 384.472 44.1013 384.24 43.9391C384.007 43.7769 383.842 43.5351 383.776 43.2595V29.1331C383.776 22.4879 387.531 18.5419 390.025 18.5419C391.389 18.5419 392.123 19.4954 392.123 21.0943V23.8961C392.123 24.9377 392.812 25.6271 394.587 25.6271C396.054 25.6271 396.993 24.9523 396.993 23.8961C396.993 19.2313 395.394 17.339 391.668 17.339ZM67.4784 43.0541C66.1807 44.0277 64.597 44.5436 62.9749 44.5211C59.1316 44.5211 57.6793 42.8048 57.0339 39.8709V39.6949V40.0323C55.9117 41.3927 54.5058 42.4915 52.9145 43.2516C51.3232 44.0118 49.5851 44.415 47.8216 44.433C44.037 44.433 41.2645 42.3353 41.2645 38.3306C41.2645 30.864 51.3716 29.2944 57.0486 29.5291H57.2246V24.1162C57.2246 20.2582 56.1831 17.9404 52.2371 17.9404C49.5819 17.9404 46.7068 18.7179 46.7068 21.6224V24.3656C46.6954 24.6373 46.6307 24.9041 46.5161 25.1507C46.4016 25.3973 46.2395 25.619 46.0392 25.8029C45.839 25.9868 45.6044 26.1295 45.3489 26.2227C45.0934 26.3158 44.8221 26.3577 44.5504 26.3459H44.3744C41.7192 26.3459 41.7632 25.2457 41.7632 23.7495C41.7632 20.2142 46.0907 17.119 52.2224 17.119C59.557 17.119 62.1975 21.1383 62.1975 25.3631V39.9002C62.1975 42.1593 63.0043 42.8341 64.2805 43.0395C65.3048 43.2595 66.3742 43.0977 67.2877 42.5847L67.4784 43.0541ZM56.7698 38.4333C56.9883 37.779 57.1166 37.0979 57.1512 36.409V30.4973C53.2346 30.4973 46.3547 31.2748 46.3547 36.365C46.2985 37.0566 46.3792 37.7525 46.5921 38.413C46.805 39.0734 47.146 39.6854 47.5956 40.214C48.0451 40.7426 48.5945 41.1774 49.2122 41.4936C49.8299 41.8098 50.5039 42.0011 51.1955 42.0566H51.8703C52.9554 41.9855 53.9952 41.5953 54.8591 40.9349C55.723 40.2746 56.3725 39.3737 56.7258 38.3453M98.093 42.7461V25.3631C98.093 19.8034 94.4404 17.339 89.1448 17.339H87.7072C87.4542 17.3494 87.2031 17.3888 86.9591 17.4564H86.6364C86.4005 17.4881 86.1691 17.5472 85.9469 17.6324C85.8545 17.6456 85.7606 17.6456 85.6682 17.6324C85.407 17.7171 85.1521 17.82 84.9054 17.9404H84.744C83.6644 18.4167 82.6726 19.0713 81.8102 19.8768C81.6078 20.0301 81.4298 20.2131 81.2821 20.4195C81.2731 20.4432 81.2731 20.4693 81.2821 20.4929C80.7987 20.9857 80.3798 21.5377 80.0352 22.1358L79.9472 22.2239C79.8717 22.37 79.7884 22.512 79.6978 22.6493V18.0431H72.4512V18.3365C72.7682 18.3322 73.0747 18.4502 73.3069 18.666C73.5392 18.8819 73.6793 19.1789 73.6981 19.4954V42.9661C73.6586 43.2773 73.513 43.5654 73.2859 43.7819C73.0588 43.9983 72.764 44.1298 72.4512 44.1543V44.5357H80.0792V44.1543C79.7468 44.1008 79.4428 43.9346 79.2185 43.6835C78.9941 43.4324 78.8629 43.1118 78.847 42.7754V28.0035C78.8819 27.8538 78.9064 27.7019 78.9203 27.5488C78.9203 27.2994 79.0084 27.006 79.0377 26.7126C79.067 26.4192 79.0377 26.4926 79.1404 26.3459C79.521 24.3352 80.5645 22.5101 82.104 21.1619C83.6436 19.8138 85.5905 19.0205 87.6339 18.9086H87.7805C91.5212 18.9086 92.5187 20.0528 92.7681 23.8815C92.7681 24.5563 92.8708 25.3484 92.8708 26.0378V42.7607C92.8472 43.1123 92.6978 43.4436 92.45 43.6941C92.2022 43.9446 91.8725 44.0976 91.5212 44.125V44.5064H99.2519V44.125C99.0862 44.1193 98.9232 44.081 98.7723 44.0123C98.6214 43.9436 98.4856 43.8458 98.3725 43.7246C98.2594 43.6033 98.1713 43.461 98.1133 43.3057C98.0553 43.1503 98.0285 42.9851 98.0343 42.8194M255.67 0.132023C253.937 0.268692 252.254 0.777052 250.735 1.62251C249.216 2.46797 247.897 3.63069 246.868 5.03154C245.401 7.01188 244.184 9.4323 244.184 14.9773V16.4442C243.92 17.6911 242.614 19.5247 241.25 19.5247C242.283 19.5574 243.303 19.2871 244.184 18.7472V43.2888C244.116 43.5709 243.96 43.824 243.738 44.0113C243.516 44.1986 243.241 44.3103 242.951 44.3303V44.6677H250.521V44.3303C250.235 44.3363 249.957 44.2362 249.74 44.0493C249.523 43.8624 249.383 43.602 249.347 43.3182V19.7594H255.215V18.1605H249.347V9.84304C249.347 3.72598 252.09 1.04151 255.391 1.04151C256.858 1.04151 258.706 1.65762 258.706 3.79933V6.85052C258.706 7.8627 259.396 8.50814 261.156 8.50814C262.916 8.50814 263.562 7.8627 263.562 6.85052C263.562 3.22723 262.315 0.132023 255.758 0.132023M316.518 26.3899C313.994 26.3899 310.855 29.4411 308.992 31.9642C308.112 33.1231 306.322 36.365 305.193 38.0813C308.317 41.6165 311.647 44.1837 314.948 41.7632L315.168 42.1446C313.431 43.792 311.117 44.6931 308.723 44.6547C306.329 44.6163 304.045 43.6415 302.362 41.9393C302.362 41.9393 302.142 41.7046 302.039 41.6019C299.653 43.8215 296.495 45.0216 293.237 44.9465C283.703 45.3572 281.194 39.2988 281.194 35.4115C281.194 30.1012 285.595 27.6808 288.191 26.7713L289.101 26.5513L289.717 26.4046L288.91 25.4217C287.375 23.8462 286.485 21.7529 286.416 19.5541C286.381 17.4712 287.174 15.4594 288.62 13.9604C290.067 12.4615 292.049 11.5979 294.132 11.5593H294.646C299.545 11.5593 302.479 14.3612 302.479 18.6152C302.494 18.8497 302.494 19.0849 302.479 19.3193V19.7007C302.487 19.7295 302.487 19.76 302.479 19.7888C302.342 20.3226 302.145 20.8393 301.892 21.329C301.836 21.4624 301.767 21.5902 301.687 21.7104C301.511 21.9451 301.32 22.1358 301.13 22.3559C299.587 23.9623 297.6 25.0709 295.423 25.5391L297.506 28.2382C300.191 31.7002 302.2 34.326 304.841 37.4358C305.075 37.1264 305.291 36.8031 305.486 36.4677C307.187 33.1837 308.186 29.5819 308.42 25.8912H316.694V26.3899M293.047 22.6053C293.692 23.3827 294.235 24.0722 294.807 24.791C297.418 23.6761 298.46 22.1358 298.812 18.4979C298.812 15.564 297.052 12.1754 293.986 12.1754H293.546C290.949 12.5862 288.235 16.5762 293.047 22.5906M301.218 41.4552C301.379 41.3085 301.555 41.1765 301.746 40.9711L301.614 40.7804C295.277 32.947 292.137 29.045 290.582 27.1967C289.958 27.524 289.363 27.9069 288.807 28.3409C287.99 29.0612 287.356 29.9665 286.959 30.9814C286.677 31.9334 286.538 32.9223 286.548 33.9152C286.896 36.4915 288.028 38.8984 289.79 40.8097C291.022 42.1333 292.659 43.0101 294.443 43.3022C296.228 43.5942 298.058 43.2851 299.648 42.4234C299.712 42.4064 299.772 42.3764 299.824 42.3353L300.249 42.086C300.588 41.885 300.912 41.6594 301.218 41.4112M204.401 38.7707C202.831 41.4258 199.677 44.6384 193.017 44.6384C186.783 44.6384 180.798 39.2548 180.798 31.1281C180.798 25.0257 184.729 19.2167 190.26 17.7204C191.147 17.4664 192.066 17.3429 192.988 17.3537H194.044C194.826 17.3916 195.602 17.5046 196.362 17.6911C198.961 18.1709 201.297 19.5773 202.937 21.6492C204.577 23.7211 205.41 26.3177 205.281 28.957V29.1917H186.548C186.548 30.0425 186.68 31.6708 186.812 32.7857C187.561 38.3013 191.389 43.2888 196.186 43.2888C197.673 43.275 199.121 42.8095 200.337 41.9539C201.327 41.0777 202.122 40.0032 202.67 38.8001H204.21L204.401 38.7707ZM188.969 21.4317C188.139 23.5067 187.644 25.7001 187.502 27.9302H199.927C199.927 23.7935 198.269 18.3218 193.648 18.3218H192.929C192.06 18.4761 191.24 18.8381 190.541 19.377C189.841 19.9158 189.281 20.6157 188.91 21.417M234.179 38.8587C232.595 41.5139 229.47 44.7264 222.796 44.7264C216.562 44.7264 210.577 39.3428 210.577 31.2161C210.577 25.1137 214.493 19.3047 220.023 17.8084C220.911 17.5572 221.83 17.4337 222.752 17.4417H223.808C224.585 17.4809 225.356 17.5939 226.111 17.7791C228.706 18.265 231.037 19.6735 232.673 21.7444C234.31 23.8152 235.142 26.4085 235.015 29.045V29.2651H216.503C216.503 30.1159 216.62 31.7442 216.767 32.859C217.515 38.3747 221.358 43.3622 226.17 43.3622C227.653 43.3548 229.098 42.8885 230.307 42.0273C231.305 41.1585 232.101 40.0821 232.639 38.8734H234.179V38.8587ZM218.938 21.4317C218.104 23.5054 217.609 25.6995 217.471 27.9302H229.896C229.896 23.7935 228.238 18.3218 223.603 18.3218H222.972C222.102 18.475 221.282 18.8365 220.582 19.3755C219.882 19.9145 219.323 20.615 218.953 21.417M458.618 38.6974C457.063 41.3232 453.939 44.5651 447.235 44.5651C441 44.5651 435.045 39.1961 435.045 31.0694C435.045 24.923 438.976 19.0553 444.477 17.5884C445.358 17.3501 446.264 17.222 447.176 17.207H448.218C448.998 17.2438 449.774 17.3519 450.535 17.5297C453.126 18.0121 455.455 19.4155 457.091 21.4809C458.728 23.5462 459.562 26.134 459.44 28.7663V29.0157H440.986C441 30.2277 441.088 31.4377 441.25 32.639C441.983 38.1693 445.827 43.1275 450.623 43.1275C452.112 43.1251 453.564 42.6585 454.775 41.7926C455.739 40.9083 456.526 39.8477 457.093 38.668H458.56L458.618 38.6974ZM443.392 21.2557C442.571 23.3385 442.076 25.5353 441.925 27.7688H454.364C454.364 23.6174 452.706 18.1458 448.056 18.1458H447.411C446.541 18.2951 445.721 18.6554 445.023 19.195C444.325 19.7346 443.77 20.4371 443.406 21.241M425.407 21.6371C427.372 24.279 428.404 27.4987 428.341 30.7907C428.341 38.8001 422.884 44.5651 415.975 44.5064C415.736 44.527 415.495 44.527 415.256 44.5064C414.313 44.4291 413.385 44.2218 412.498 43.8903C411.274 43.4164 410.263 42.5148 409.652 41.3525V60.7305H400.939V60.3638C401.306 60.3638 404.459 59.733 404.459 57.7087V19.5687C404.452 19.3145 404.344 19.0735 404.16 18.8979C403.977 18.7222 403.731 18.6259 403.477 18.6299H403.403V18.2632H409.623V21.417C410.68 20.2695 411.971 19.3615 413.408 18.7542C414.845 18.147 416.395 17.8545 417.955 17.8964C419.394 17.9454 420.804 18.3051 422.091 18.9508C423.377 19.5965 424.508 20.5129 425.407 21.6371ZM414.508 43.1275C420.2 43.1275 423.045 36.585 423.045 30.5853C423.148 27.5374 422.229 24.5426 420.434 22.0772C419.798 21.2658 418.971 20.6251 418.026 20.2129C417.081 19.8006 416.049 19.6297 415.021 19.7154C413.114 19.7154 409.638 21.7984 409.638 24.8056C409.618 25.0791 409.618 25.3536 409.638 25.6271V37.9786C409.723 38.5194 409.845 39.0537 410.004 39.5775C410.196 40.316 410.563 40.9974 411.073 41.5642C411.584 42.131 412.224 42.5666 412.938 42.8341C413.401 43.0358 413.901 43.1359 414.405 43.1275" fill="#1C1C1E"/>
</svg>
