<svg width="701" height="85" viewBox="0 0 701 85" fill="none" xmlns="http://www.w3.org/2000/svg">
<path d="M218.701 43.3418V56.4203C218.701 56.913 207.369 62.436 198.546 62.436C194.868 62.4652 191.221 61.753 187.825 60.3418C184.429 58.9306 181.354 56.8496 178.782 54.2234C175.707 51.2894 173.263 47.7613 171.597 43.8539C169.932 39.9465 169.081 35.7415 169.096 31.4952C169.096 15.07 181.579 0.492754 198.32 0H199.184C205.401 0.00436207 211.387 2.35071 215.945 6.57005C216.668 7.06075 217.199 7.78622 217.447 8.62319V14.5978H216.871C216.884 14.5369 216.884 14.474 216.871 14.413C216.311 12.1032 215.261 9.94016 213.793 8.07002C212.324 6.19987 210.47 4.66616 208.356 3.57246C205.849 2.37513 203.131 1.67772 200.356 1.51932C183.039 0.431159 178.782 20.6546 178.782 31.4746C178.782 43.9167 187.276 60.6087 200.048 60.6087C210.331 60.6087 215.102 52.663 217.056 47.2838C217.426 45.9493 217.817 44.6353 218.146 43.3418H218.681H218.701ZM240.625 59.9106V1.39614H228.429V1.88889C228.943 1.88889 233.365 2.73068 233.365 5.60507V59.9106C233.368 60.156 233.322 60.3995 233.23 60.6272C233.139 60.8549 233.003 61.0624 232.831 61.2378C232.66 61.4132 232.455 61.5531 232.229 61.6495C232.003 61.7458 231.76 61.7968 231.514 61.7995V62.3333H242.476V61.7995C242.242 61.805 242.009 61.764 241.791 61.679C241.573 61.594 241.374 61.4666 241.206 61.3043C241.038 61.142 240.903 60.9479 240.81 60.7333C240.718 60.5188 240.669 60.288 240.666 60.0543C240.666 60.0543 240.666 60.0543 240.666 59.9312M662.479 59.9312V1.39614H650.325V1.88889C650.818 1.88889 655.302 2.73068 655.302 5.60507V59.9106C655.302 60.1604 655.252 60.4077 655.156 60.6382C655.06 60.8688 654.918 61.0779 654.74 61.2536C654.563 61.4292 654.352 61.568 654.12 61.6617C653.888 61.7554 653.639 61.8022 653.389 61.7995V62.3333H664.289V61.7995C664.055 61.8077 663.822 61.7695 663.603 61.687C663.384 61.6045 663.183 61.4794 663.013 61.319C662.843 61.1586 662.706 60.966 662.611 60.7524C662.516 60.5388 662.464 60.3085 662.459 60.0749C662.459 60.0749 662.459 60.0749 662.459 59.9312M48.7008 2.03261V2.64855C51.1277 2.64855 52.2588 4.20894 51.5595 5.97464L34.3867 51.308L17.4402 7.14493C16.1445 3.75725 18.3862 2.64855 21.101 2.64855V2.03261H0V2.64855C1.89341 2.5647 3.76573 3.07376 5.35506 4.10453C6.9444 5.1353 8.17126 6.63621 8.86405 8.39734L29.5331 62.4155H31.5897L52.773 6.50845C53.254 5.39734 54.0406 4.44505 55.0416 3.76191C56.0426 3.07877 57.217 2.69274 58.4287 2.64855V2.03261H48.7008ZM687.632 62.3333C696.105 62.3333 701 56.5229 701 50.4046C701 45.3333 697.216 42.192 692.013 40.5906L685.843 38.5374C680.948 37.0181 678.377 35.4988 678.377 31.9058C678.377 27.7995 681.483 25.2742 686.85 25.2742C692.568 25.2742 694.686 29.7295 696.29 34.7186H696.763V27.7174C693.994 25.4198 690.513 24.1503 686.912 24.1244C679.961 24.1244 674.819 28.8877 674.819 35.1703C674.819 42.5821 679.673 44.2246 683.149 45.436L689.689 47.6534C692.527 48.6594 695.159 49.9324 695.159 54.2234C695.239 55.1505 695.117 56.0838 694.8 56.9589C694.483 57.8341 693.98 58.63 693.324 59.2919C692.669 59.9538 691.878 60.4657 691.005 60.7923C690.133 61.1189 689.199 61.2524 688.27 61.1836C679.776 61.1836 676.485 54.6956 674.984 49.4601H674.572V57.3647C678.302 60.4087 682.921 62.1597 687.735 62.3539M515.534 58.2476C516.021 59.2773 516.776 60.1577 517.72 60.7969C518.664 61.4361 519.763 61.8107 520.902 61.8816V62.4155H503.811V61.8816C504.531 61.8816 507.533 61.1425 506.505 58.3297L499.43 39.6872H479.07L471.728 59.0894C470.843 61.4094 473.599 61.8611 474.216 61.8611V62.3949H465.99V61.8611C466.873 61.9068 467.75 61.6966 468.517 61.2558C469.283 60.8151 469.905 60.1625 470.309 59.3768L491.944 1.78623H494.001L515.472 58.1039M489.188 12.9348L480.18 36.7101H498.217L489.188 12.9348ZM549.118 24.2681C542.003 24.2681 539 30.4275 538.054 33.6715H537.93V25.2536H529.005V25.6642C529.44 25.7074 529.85 25.8879 530.175 26.1795C530.501 26.4712 530.725 26.8589 530.814 27.2862V60.3418C530.748 60.7644 530.526 61.1467 530.19 61.413C529.855 61.6792 529.432 61.8098 529.005 61.779V62.3128H539.823V61.779C539.428 61.8251 539.03 61.7252 538.704 61.4982C538.378 61.2712 538.147 60.9328 538.054 60.5471V40.7754C538.054 31.4746 543.319 25.9517 546.815 25.9517C548.728 25.9517 549.756 27.2862 549.756 29.5242V33.4456C549.756 34.9034 550.723 35.8684 553.211 35.8684C555.268 35.8684 556.584 34.9239 556.584 33.4456C556.584 26.9167 554.342 24.2681 549.118 24.2681ZM94.6047 60.2597C92.7854 61.6222 90.565 62.3443 88.2908 62.3128C82.9025 62.3128 80.8664 59.9106 79.9615 55.8043V55.558V56.0302C78.3883 57.9343 76.4172 59.4721 74.1862 60.5361C71.9552 61.6 69.5182 62.1644 67.0459 62.1896C61.7398 62.1896 57.8528 59.2536 57.8528 53.6485C57.8528 43.1981 72.0229 41.0012 79.9821 41.3297H80.2289V33.7536C80.2289 28.3539 78.7687 25.1099 73.2364 25.1099C69.5139 25.1099 65.4829 26.1981 65.4829 30.2633V34.1027C65.467 34.4829 65.3762 34.8564 65.2156 35.2016C65.055 35.5468 64.8278 35.8569 64.547 36.1144C64.2662 36.3718 63.9373 36.5715 63.5791 36.7019C63.221 36.8323 62.8405 36.8909 62.4596 36.8744H62.2129C58.4904 36.8744 58.5521 35.3345 58.5521 33.2403C58.5521 28.2923 64.6191 23.9601 73.2158 23.9601C83.4989 23.9601 87.2008 29.5857 87.2008 35.4988V55.8454C87.2008 59.0072 88.332 59.9517 90.1212 60.2391C91.5573 60.547 93.0566 60.3207 94.3373 59.6027L94.6047 60.2597ZM79.5913 53.7923C79.8976 52.8764 80.0775 51.9232 80.126 50.9589V42.6848C74.6349 42.6848 64.9893 43.7729 64.9893 50.8973C64.9105 51.8654 65.0236 52.8394 65.3221 53.7638C65.6206 54.6882 66.0987 55.5448 66.729 56.2846C67.3593 57.0244 68.1295 57.633 68.9955 58.0755C69.8615 58.518 70.8064 58.7858 71.7762 58.8635H72.7222C74.2434 58.764 75.7012 58.2178 76.9124 57.2936C78.1236 56.3694 79.0342 55.1084 79.5296 53.6691M137.526 59.8285V35.4988C137.526 27.7174 132.405 24.2681 124.981 24.2681H122.966C122.611 24.2827 122.259 24.3378 121.917 24.4324H121.464C121.133 24.4768 120.809 24.5594 120.498 24.6787C120.368 24.6973 120.236 24.6973 120.107 24.6787C119.741 24.7973 119.383 24.9414 119.037 25.1099H118.811C117.297 25.7765 115.907 26.6927 114.698 27.82C114.414 28.0346 114.165 28.2907 113.957 28.5797C113.945 28.6128 113.945 28.6493 113.957 28.6824C113.28 29.3721 112.692 30.1447 112.209 30.9819L112.086 31.1051C111.98 31.3096 111.863 31.5083 111.736 31.7005V25.2536H101.577V25.6642C102.021 25.6582 102.451 25.8234 102.776 26.1255C103.102 26.4275 103.298 26.8433 103.325 27.2862V60.1365C103.269 60.5721 103.065 60.9753 102.747 61.2782C102.428 61.5811 102.015 61.7652 101.577 61.7995V62.3333H112.271V61.7995C111.805 61.7246 111.379 61.4919 111.064 61.1405C110.75 60.7891 110.566 60.3403 110.543 59.8696V39.1944C110.592 38.9849 110.627 38.7722 110.646 38.558C110.646 38.2089 110.77 37.7983 110.811 37.3877C110.852 36.977 110.811 37.0797 110.955 36.8744C111.488 34.0602 112.951 31.5057 115.11 29.6188C117.268 27.7319 119.998 26.6215 122.863 26.465H123.068C128.313 26.465 129.711 28.0664 130.061 33.4251C130.061 34.3696 130.205 35.4783 130.205 36.4432V59.849C130.172 60.3411 129.962 60.8048 129.615 61.1554C129.267 61.5061 128.805 61.7201 128.313 61.7584V62.2923H139.151V61.7584C138.919 61.7505 138.69 61.6969 138.479 61.6008C138.267 61.5046 138.077 61.3677 137.918 61.198C137.76 61.0283 137.636 60.8291 137.555 60.6117C137.474 60.3943 137.436 60.1631 137.444 59.9312M358.449 0.184783C356.019 0.376068 353.66 1.08758 351.53 2.27091C349.401 3.45423 347.552 5.0816 346.109 7.04227C344.052 9.81401 342.346 13.2017 342.346 20.9626V23.0157C341.975 24.7609 340.145 27.3273 338.232 27.3273C339.68 27.373 341.11 26.9947 342.346 26.2391V60.5882C342.25 60.983 342.031 61.3372 341.721 61.5993C341.41 61.8614 341.024 62.0179 340.618 62.0459V62.5181H351.23V62.0459C350.829 62.0542 350.439 61.914 350.135 61.6525C349.832 61.3909 349.635 61.0265 349.585 60.6292V27.6558H357.811V25.4179H349.585V13.7766C349.585 5.21497 353.431 1.45773 358.058 1.45773C360.115 1.45773 362.706 2.32005 362.706 5.31763V9.58816C362.706 11.0048 363.673 11.9082 366.141 11.9082C368.609 11.9082 369.513 11.0048 369.513 9.58816C369.513 4.51691 367.765 0.184783 358.572 0.184783M443.758 36.936C440.22 36.936 435.819 41.2065 433.207 44.7379C431.973 46.3599 429.464 50.8973 427.88 53.2995C432.261 58.2476 436.93 61.8406 441.557 58.4529L441.866 58.9867C439.43 61.2924 436.186 62.5536 432.83 62.4999C429.473 62.4462 426.272 61.0818 423.911 58.6993C423.911 58.6993 423.603 58.3708 423.459 58.2271C420.114 61.3337 415.686 63.0134 411.119 62.9082C397.751 63.4831 394.234 55.0036 394.234 49.5628C394.234 42.1304 400.404 38.7428 404.044 37.4698L405.319 37.1618L406.183 36.9565L405.052 35.5809C402.899 33.3758 401.652 30.4459 401.556 27.3684C401.506 24.4531 402.618 21.6373 404.646 19.5393C406.674 17.4414 409.453 16.2327 412.374 16.1787H413.093C419.962 16.1787 424.076 20.1002 424.076 26.0543C424.096 26.3825 424.096 26.7117 424.076 27.0399V27.5737C424.087 27.6139 424.087 27.6566 424.076 27.6969C423.883 28.444 423.608 29.1672 423.253 29.8527C423.174 30.0394 423.078 30.2182 422.965 30.3865C422.718 30.715 422.451 30.9819 422.184 31.2899C420.022 33.5383 417.236 35.0899 414.183 35.7452L417.104 39.5229C420.867 44.3684 423.685 48.0435 427.387 52.3961C427.716 51.963 428.018 51.5105 428.292 51.0411C430.676 46.4448 432.077 41.4036 432.405 36.2379H444.004V36.936M410.852 31.6389C411.757 32.7271 412.517 33.692 413.32 34.6981C416.98 33.1377 418.441 30.9819 418.934 25.8901C418.934 21.7838 416.466 17.0411 412.168 17.0411H411.551C407.911 17.6159 404.106 23.2005 410.852 31.6184M422.307 58.0217C422.533 57.8164 422.78 57.6316 423.047 57.3442L422.862 57.0773C413.978 46.1135 409.577 40.6522 407.396 38.0652C406.52 38.5233 405.688 39.0593 404.908 39.6667C403.761 40.6747 402.873 41.9418 402.317 43.3623C401.921 44.6948 401.727 46.0788 401.741 47.4686C402.229 51.0744 403.815 54.4432 406.286 57.1184C408.013 58.9709 410.308 60.198 412.809 60.6068C415.311 61.0156 417.878 60.583 420.106 59.3768C420.196 59.353 420.28 59.3111 420.353 59.2536L420.95 58.9046C421.425 58.6233 421.878 58.3076 422.307 57.9601M286.57 54.2645C284.369 57.9807 279.948 62.477 270.61 62.477C261.87 62.477 253.479 54.942 253.479 43.5676C253.479 35.0266 258.991 26.8961 266.744 24.8019C267.987 24.4464 269.276 24.2735 270.569 24.2886H272.05C273.146 24.3417 274.234 24.4998 275.3 24.7609C278.943 25.4325 282.218 27.4009 284.518 30.3008C286.817 33.2006 287.985 36.8349 287.804 40.529V40.8575H261.541C261.541 42.0483 261.726 44.3273 261.911 45.8877C262.96 53.6075 268.328 60.5882 275.053 60.5882C277.138 60.5688 279.168 59.9173 280.873 58.7198C282.261 57.4934 283.375 55.9895 284.143 54.3055H286.303L286.57 54.2645ZM264.934 29.9964C263.771 32.9006 263.077 35.9705 262.878 39.0918H280.297C280.297 33.3019 277.973 25.6437 271.495 25.6437H270.487C269.268 25.8597 268.119 26.3663 267.138 27.1205C266.157 27.8747 265.373 28.8543 264.852 29.9758M328.319 54.3877C326.098 58.1039 321.718 62.6002 312.36 62.6002C303.619 62.6002 295.228 55.0652 295.228 43.6908C295.228 35.1498 300.719 27.0193 308.473 24.9251C309.717 24.5735 311.005 24.4007 312.298 24.4118H313.779C314.868 24.4667 315.949 24.6248 317.008 24.8841C320.645 25.5641 323.913 27.5355 326.208 30.434C328.503 33.3324 329.669 36.962 329.492 40.6522V40.9601H303.537C303.537 42.151 303.702 44.4299 303.907 45.9903C304.956 53.7101 310.344 60.6908 317.09 60.6908C319.17 60.6805 321.196 60.0279 322.89 58.8225C324.289 57.6065 325.405 56.0999 326.16 54.4082H328.319V54.3877ZM306.951 29.9964C305.782 32.8987 305.088 35.9696 304.894 39.0918H322.314C322.314 33.3019 319.99 25.6437 313.491 25.6437H312.607C311.387 25.858 310.237 26.364 309.256 27.1184C308.275 27.8728 307.491 28.8532 306.972 29.9758M642.983 54.1618C640.803 57.8369 636.422 62.3744 627.023 62.3744C618.283 62.3744 609.933 54.8599 609.933 43.4855C609.933 34.8828 615.445 26.6703 623.157 24.6171C624.391 24.2837 625.662 24.1044 626.941 24.0833H628.401C629.496 24.1349 630.584 24.2861 631.651 24.535C635.283 25.2102 638.548 27.1745 640.842 30.0652C643.137 32.9559 644.306 36.5778 644.134 40.2621V40.6111H618.262C618.282 42.3075 618.406 44.001 618.632 45.6824C619.661 53.4227 625.049 60.3623 631.774 60.3623C633.862 60.3589 635.896 59.7059 637.594 58.494C638.947 57.2563 640.05 55.7719 640.844 54.1208H642.9L642.983 54.1618ZM621.635 29.75C620.484 32.6651 619.791 35.7398 619.578 38.8659H637.018C637.018 33.0556 634.695 25.3973 628.175 25.3973H627.27C626.051 25.6064 624.901 26.1105 623.923 26.8658C622.944 27.621 622.165 28.6043 621.655 29.7295M596.421 30.2838C599.176 33.9815 600.623 38.4879 600.534 43.0954C600.534 54.3055 592.883 62.3744 583.197 62.2923C582.861 62.3211 582.524 62.3211 582.189 62.2923C580.866 62.1841 579.565 61.8939 578.322 61.4299C576.606 60.7666 575.188 59.5047 574.333 57.878V85H562.116V84.4867C562.63 84.4867 567.052 83.6039 567.052 80.7705V27.3889C567.041 27.0331 566.891 26.6958 566.633 26.4499C566.375 26.204 566.031 26.0693 565.674 26.0749H565.571V25.5616H574.291V29.9758C575.773 28.3696 577.583 27.0989 579.598 26.2489C581.613 25.399 583.786 24.9896 585.973 25.0483C587.99 25.1169 589.968 25.6203 591.771 26.524C593.575 27.4277 595.161 28.7104 596.421 30.2838ZM581.14 60.3623C589.12 60.3623 593.11 51.2053 593.11 42.808C593.254 38.5421 591.965 34.3505 589.449 30.8998C588.557 29.7641 587.397 28.8674 586.072 28.2904C584.748 27.7134 583.3 27.4742 581.86 27.5942C579.186 27.5942 574.312 30.5097 574.312 34.7186C574.285 35.1014 574.285 35.4856 574.312 35.8684V53.1558C574.431 53.9128 574.603 54.6605 574.826 55.3937C575.095 56.4272 575.609 57.381 576.325 58.1743C577.041 58.9677 577.938 59.5773 578.939 59.9517C579.588 60.2341 580.289 60.3741 580.996 60.3623" fill="white"/>
</svg>
